HIERARCHY
ROOT Hips
{
 OFFSET 0.000000 0.000000 0.000000
 CHANNELS 6 Xposition Yposition Zposition Yrotation Xrotation Zrotation
 JOINT Chest
 {
  OFFSET 0.000000 9.585900 0.002600
  CHANNELS 3 Yrotation Xrotation Zrotation
  JOINT Chest2
  {
   OFFSET 0.000000 9.601200 -0.005300
   CHANNELS 3 Yrotation Xrotation Zrotation
   JOINT Chest3
   {
    OFFSET 0.000000 9.561800 0.000000
    CHANNELS 3 Yrotation Xrotation Zrotation
    JOINT Chest4
    {
     OFFSET 0.000000 9.552100 0.000000
     CHANNELS 3 Yrotation Xrotation Zrotation
     JOINT Neck
     {
      OFFSET 0.000000 14.453000 0.000000
      CHANNELS 3 Yrotation Xrotation Zrotation
      JOINT Head
      {
       OFFSET 0.000000 8.936500 -0.011300
       CHANNELS 3 Yrotation Xrotation Zrotation
       End Site
       {
        OFFSET 0.000000 17.073600 -0.006000
       }
      }
     }
     JOINT RightCollar
     {
      OFFSET -2.921100 9.558500 0.000000
      CHANNELS 3 Yrotation Xrotation Zrotation
      JOINT RightShoulder
      {
       OFFSET -13.519700 0.000000 0.000000
       CHANNELS 3 Yrotation Xrotation Zrotation
       JOINT RightElbow
       {
        OFFSET 0.000000 -29.696600 0.000000
        CHANNELS 3 Yrotation Xrotation Zrotation
        JOINT RightWrist
        {
         OFFSET 0.000000 -24.004700 0.000000
         CHANNELS 3 Yrotation Xrotation Zrotation
         End Site
         {
          OFFSET 0.000000 -17.728500 0.000000
         }
        }
       }
      }
     }
     JOINT LeftCollar
     {
      OFFSET 2.921100 9.558500 0.000000
      CHANNELS 3 Yrotation Xrotation Zrotation
      JOINT LeftShoulder
      {
       OFFSET 13.519700 0.000000 0.000000
       CHANNELS 3 Yrotation Xrotation Zrotation
       JOINT LeftElbow
       {
        OFFSET 0.000000 -29.696600 0.000000
        CHANNELS 3 Yrotation Xrotation Zrotation
        JOINT LeftWrist
        {
         OFFSET 0.000000 -24.004700 0.000000
         CHANNELS 3 Yrotation Xrotation Zrotation
         End Site
         {
          OFFSET 0.000000 -17.728500 0.000000
         }
        }
       }
      }
     }
    }
   }
  }
 }
 JOINT RightHip
 {
  OFFSET -7.771700 -0.012900 -0.001300
  CHANNELS 3 Yrotation Xrotation Zrotation
  JOINT RightKnee
  {
   OFFSET 0.000000 -40.869800 0.001200
   CHANNELS 3 Yrotation Xrotation Zrotation
   JOINT RightAnkle
   {
    OFFSET 0.000000 -39.717900 0.002100
    CHANNELS 3 Yrotation Xrotation Zrotation
    JOINT RightToe
    {
     OFFSET 0.000000 -4.965400 11.033500
     CHANNELS 3 Yrotation Xrotation Zrotation
     End Site
     {
      OFFSET 0.000000 -1.423100 5.872300
     }
    }
   }
  }
 }
 JOINT LeftHip
 {
  OFFSET 7.771700 -0.012900 -0.001300
  CHANNELS 3 Yrotation Xrotation Zrotation
  JOINT LeftKnee
  {
   OFFSET 0.000000 -40.869800 0.001200
   CHANNELS 3 Yrotation Xrotation Zrotation
   JOINT LeftAnkle
   {
    OFFSET 0.000000 -39.717900 0.002100
    CHANNELS 3 Yrotation Xrotation Zrotation
    JOINT LeftToe
    {
     OFFSET 0.000000 -4.965400 11.033500
     CHANNELS 3 Yrotation Xrotation Zrotation
     End Site
     {
      OFFSET 0.000000 -1.423100 5.872300
     }
    }
   }
  }
 }
}
MOTION
Frames: 13
Frame Time: 0.008333
0.000000 85.388000 0.000000 0.000000 -5.767877 0.000000 0.000000 11.653817 0.000000 0.000000 -5.885947 0.000000 0.000000 -0.000000 0.000000 0.000000 -0.000000 0.000000 0.000000 12.528835 0.000000 0.000000 0.711642 0.000000 0.000000 -0.000000 0.000000 0.000000 0.000000 -90.000000 0.000000 -2.309062 0.000000 0.000000 2.309062 0.000000 0.000000 -0.000000 0.000000 0.000000 -0.000000 90.000000 0.000000 -2.309062 0.000000 0.000000 2.309062 0.000000 0.000000 8.520406 0.000000 0.000000 1.905762 0.000000 -0.000000 -4.658285 0.000000 0.000000 -0.000000 0.000000 0.000000 8.520406 0.000000 0.000000 1.905762 0.000000 -0.000000 -4.658285 0.000000 0.000000 -0.000000 0.000000
-40.158324 44.094782 34.634347 174.165629 -30.291415 -0.586077 -1.470685 21.136029 1.705176 -0.184456 2.773695 0.344812 -0.292728 4.526706 0.558665 -0.920068 17.946605 2.131231 -3.855597 15.651408 0.778627 -4.259550 -9.224642 1.705157 9.057693 2.149187 -2.648946 -23.886247 -7.312776 -6.558901 -97.537684 -67.570123 103.380945 -16.273871 3.475453 -38.522592 -16.069397 1.006274 -6.015677 25.537104 -5.844152 0.861417 110.949453 -68.426996 -119.549457 20.725088 9.816973 35.768235 -4.746463 -61.953134 13.301030 -153.544954 72.052197 -151.957396 -13.508879 -22.948330 8.176314 0.888223 -0.573592 0.360577 3.150086 -51.088418 -3.674927 171.650388 63.243490 173.731790 0.040596 -36.048785 0.708950 -0.008459 0.400416 0.020884
-40.161724 44.091020 34.634626 174.209704 -30.237661 -0.600705 -1.422409 21.057500 1.688027 -0.176415 2.749632 0.340483 -0.279901 4.489540 0.552066 -0.875670 17.885013 2.120785 -3.828176 15.620656 0.783577 -4.230708 -9.258361 1.703921 8.988411 2.152308 -2.659489 -23.673503 -7.102226 -6.415433 -98.134867 -67.836060 104.667577 -15.988597 3.612471 -38.041186 -15.939652 1.056720 -5.959654 25.402266 -5.590628 0.767315 111.801039 -68.660711 -120.874550 20.665566 9.954545 35.825697 -4.794284 -62.005340 13.325381 -153.542902 72.030981 -151.971116 -13.518641 -23.030988 8.195312 0.904852 -0.597640 0.372259 3.128599 -51.153470 -3.694352 171.667654 63.244558 173.739324 0.034926 -36.034499 0.710310 -0.004643 0.398300 0.032200
-40.164389 44.087074 34.635178 174.237916 -30.174404 -0.612441 -1.360906 20.970115 1.675405 -0.168738 2.725580 0.336146 -0.267713 4.452354 0.545316 -0.833415 17.823026 2.109539 -3.798657 15.591636 0.789176 -4.199836 -9.290285 1.702779 8.920789 2.154479 -2.677933 -23.424154 -6.904959 -6.269952 -98.734458 -68.108679 105.924730 -15.702535 3.739552 -37.543136 -15.820830 1.106689 -5.912417 25.266685 -5.355276 0.681163 112.586678 -68.822371 -122.151195 20.625250 10.092943 35.883905 -4.836700 -62.062898 13.363231 -153.517508 72.010846 -151.961123 -13.532186 -23.138332 8.221002 0.889819 -0.594368 0.376947 3.136299 -51.230224 -3.721628 171.669173 63.242179 173.743134 0.024014 -36.007870 0.723595 0.000346 0.383192 0.034762
-40.165235 44.086702 34.630068 174.255432 -30.144894 -0.625722 -1.287902 20.917885 1.669773 -0.161410 2.701376 0.331716 -0.255952 4.414856 0.538502 -0.792848 17.760149 2.097574 -3.769595 15.563908 0.795492 -4.169677 -9.320784 1.702457 8.852657 2.152236 -2.702272 -23.143520 -6.718453 -6.121205 -99.341822 -68.390336 107.169567 -15.408906 3.868889 -37.052474 -15.711863 1.155511 -5.869670 25.119179 -5.130683 0.595874 113.329424 -68.936044 -123.389777 20.601399 10.231903 35.929876 -4.874997 -62.090473 13.414808 -153.469403 71.983802 -151.926187 -13.568134 -23.206204 8.253532 0.856028 -0.624834 0.378791 3.125407 -51.260851 -3.724890 171.666452 63.243471 173.736892 0.015333 -35.997258 0.730411 0.002113 0.373823 0.025094
-40.166279 44.084563 34.628601 174.291962 -30.084994 -0.648340 -1.231930 20.837014 1.665486 -0.154292 2.677253 0.327166 -0.244466 4.377444 0.531623 -0.753332 17.697027 2.084732 -3.741770 15.536363 0.803437 -4.141300 -9.350981 1.704218 8.788806 2.142482 -2.728719 -22.840290 -6.543622 -5.975755 -99.938216 -68.677564 108.393178 -15.100308 3.996883 -36.583689 -15.611942 1.197598 -5.825874 24.957001 -4.908932 0.505416 114.065983 -69.025657 -124.618317 20.591511 10.368664 35.957934 -4.924831 -62.149728 13.459962 -153.425210 71.959300 -151.892427 -13.593362 -23.270725 8.289171 0.814653 -0.652186 0.373516 3.101810 -51.325965 -3.732251 171.667224 63.246423 173.734495 0.007149 -35.994860 0.735283 0.005759 0.378583 0.026446
-40.168355 44.080459 34.631205 174.282124 -29.992959 -0.642776 -1.139905 20.725720 1.656025 -0.147690 2.653591 0.322546 -0.233840 4.340745 0.524513 -0.716923 17.634735 2.070410 -3.711061 15.508267 0.813318 -4.110300 -9.381801 1.707439 8.745156 2.118468 -2.750789 -22.528090 -6.378430 -5.850216 -100.541880 -68.970593 109.603854 -14.781993 4.130559 -36.129973 -15.512794 1.225458 -5.777830 24.778914 -4.685271 0.407860 114.823171 -69.109417 -125.861239 20.587059 10.491600 35.974804 -4.929721 -62.240728 13.493138 -153.400527 71.939456 -151.875656 -13.592709 -23.389069 8.343015 0.798786 -0.620575 0.342425 3.138326 -51.424349 -3.760727 171.664538 63.252473 173.732252 0.013730 -35.973926 0.740988 -0.000693 0.368515 0.022551
-40.170924 44.075278 34.636397 174.334231 -29.878976 -0.666203 -1.103417 20.595268 1.645172 -0.141652 2.630563 0.317953 -0.224241 4.305022 0.517323 -0.684083 17.573726 2.055081 -3.676002 15.479953 0.824314 -4.074752 -9.413037 1.710767 8.726604 2.081705 -2.765699 -22.218377 -6.222335 -5.756949 -101.177296 -69.266493 110.819386 -14.453591 4.283714 -35.671142 -15.413743 1.236964 -5.726538 24.590062 -4.462095 0.308313 115.604489 -69.201647 -127.126710 20.577401 10.588804 35.980046 -4.988180 -62.350574 13.518748 -153.400117 71.922936 -151.892838 -13.549162 -23.483170 8.378449 0.772563 -0.597269 0.321564 3.156583 -51.552765 -3.808054 171.669151 63.256333 173.747487 0.007300 -35.963677 0.761608 -0.001607 0.375577 0.021828
-40.172033 44.074609 34.634467 174.390390 -29.811768 -0.696833 -1.070116 20.513177 1.639465 -0.135588 2.608239 0.313461 -0.214627 4.270387 0.510320 -0.650652 17.514193 2.040082 -3.636860 15.452512 0.835890 -4.034922 -9.443449 1.713620 8.728070 2.043318 -2.773290 -21.916007 -6.082524 -5.697562 -101.829351 -69.560619 112.031790 -14.106597 4.449459 -35.199425 -15.322654 1.238029 -5.670067 24.405656 -4.247275 0.209476 116.403080 -69.318700 -128.417655 20.558155 10.652065 35.959163 -5.048223 -62.418686 13.562351 -153.355358 71.891190 -151.862827 -13.551787 -23.527271 8.411195 0.763684 -0.631535 0.324697 3.130677 -51.625727 -3.822643 171.669221 63.260399 173.745774 -0.000730 -35.960160 0.774256 -0.002637 0.381401 0.024728
-40.172175 44.074214 34.632610 174.416743 -29.741964 -0.720868 -1.009433 20.429523 1.644048 -0.129377 2.586392 0.309190 -0.204712 4.236389 0.503720 -0.615519 17.455461 2.026552 -3.592774 15.428093 0.846862 -3.989678 -9.470730 1.714673 8.742469 2.010014 -2.772125 -21.619820 -5.966980 -5.667332 -102.494443 -69.862353 113.236310 -13.737075 4.628472 -34.703991 -15.241404 1.240411 -5.608004 24.230509 -4.052097 0.110531 117.209451 -69.461908 -129.724716 20.519143 10.688786 35.899713 -5.101372 -62.487382 13.619757 -153.310247 71.870088 -151.824812 -13.558947 -23.569224 8.433968 0.743436 -0.675389 0.329404 3.105461 -51.698149 -3.816382 171.666932 63.263886 173.738700 -0.006826 -35.959852 0.773952 -0.002857 0.386280 0.033066
-40.176100 44.073518 34.631078 174.441242 -29.664096 -0.725769 -0.955687 20.337356 1.631544 -0.123265 2.564564 0.305139 -0.194987 4.202364 0.497476 -0.580625 17.396309 2.014213 -3.543092 15.408755 0.856071 -3.937987 -9.492825 1.712589 8.763225 1.984414 -2.762891 -21.323497 -5.876386 -5.655501 -103.209489 -70.183597 114.459578 -13.344799 4.831004 -34.169021 -15.165980 1.251286 -5.546938 24.053143 -3.882574 0.016744 118.010028 -69.609052 -131.018469 20.441384 10.721488 35.799840 -5.113430 -62.562220 13.634638 -153.256022 71.853501 -151.771126 -13.617657 -23.628986 8.482437 0.795020 -0.659653 0.322613 3.121780 -51.780826 -3.851123 171.659299 63.266591 173.732729 -0.027497 -35.943985 0.786783 0.005489 0.377900 0.037019
-40.179986 44.073245 34.628881 174.466128 -29.587561 -0.736132 -0.902231 20.245441 1.625137 -0.117266 2.542413 0.301263 -0.185329 4.167911 0.491492 -0.545716 17.335756 2.003056 -3.487382 15.394339 0.864195 -3.879614 -9.509971 1.707921 8.783882 1.969706 -2.750090 -21.021090 -5.811135 -5.650094 -103.988536 -70.519537 115.713846 -12.933999 5.052453 -33.592439 -15.097230 1.265591 -5.493164 23.863595 -3.735071 -0.060904 118.787356 -69.741421 -132.266711 20.325112 10.765404 35.659524 -5.123654 -62.633553 13.655242 -153.205506 71.831499 -151.734097 -13.608479 -23.702966 8.514174 0.778496 -0.613530 0.319978 3.134371 -51.860753 -3.875596 171.669305 63.270158 173.738719 -0.036462 -35.934049 0.807279 0.005699 0.373871 0.035667
-40.186955 44.073176 34.625822 174.496264 -29.511409 -0.736563 -0.857766 20.154034 1.605570 -0.149921 2.537555 0.315107 -0.138396 4.115260 0.467031 -0.510353 17.273469 1.994591 -3.426460 15.382774 0.870058 -3.815103 -9.524351 1.699603 8.797531 1.963102 -2.741561 -20.718391 -5.770990 -5.644077 -104.774911 -70.855724 116.962746 -12.504884 5.275697 -32.987684 -15.039160 1.272990 -5.448762 23.656688 -3.602045 -0.117371 119.538510 -69.859861 -133.465532 20.192926 10.822343 35.488920 -5.130991 -62.708836 13.647602 -153.214456 71.814877 -151.757277 -13.598134 -23.752998 8.540473 0.737081 -0.635493 0.315378 3.177907 -51.940122 -3.929925 171.692819 63.274335 173.756564 -0.039694 -35.917101 0.846106 0.003180 0.362297 0.020239
